<svg width="22" height="22" viewBox="0 0 22 22" fill="none" xmlns="http://www.w3.org/2000/svg">
<path d="M16.5 1.83325H13.75C12.5344 1.83325 11.3687 2.30674 10.5091 3.14957C9.64957 3.99239 9.16669 5.1355 9.16669 6.32743V9.02394H6.41669V12.6193H9.16669V19.81H12.8334V12.6193H15.5834L16.5 9.02394H12.8334V6.32743C12.8334 6.08905 12.9299 5.86042 13.1018 5.69186C13.2737 5.52329 13.5069 5.4286 13.75 5.4286H16.5V1.83325Z" stroke="#666666" stroke-width="1.1" stroke-linecap="round" stroke-linejoin="round"/>
<path d="M0 0V-1H-1V0H0ZM22 0H23V-1H22V0ZM22 22V23H23V22H22ZM0 22H-1V23H0V22ZM0 1H22V-1H0V1ZM21 0V22H23V0H21ZM22 21H0V23H22V21ZM1 22V0H-1V22H1Z" fill="black"/>
</svg>
